<?xml version="1.0" encoding="UTF-8" standalone="no"?>
<!-- Created with Inkscape (http://www.inkscape.org/) -->

<svg
   width="210mm"
   height="297mm"
   viewBox="0 0 210 297"
   version="1.1"
   id="svg1"
   xml:space="preserve"
   inkscape:version="1.4 (86a8ad7, 2024-10-11)"
   sodipodi:docname="plashka_02.svg"
   xmlns:inkscape="http://www.inkscape.org/namespaces/inkscape"
   xmlns:sodipodi="http://sodipodi.sourceforge.net/DTD/sodipodi-0.dtd"
   xmlns="http://www.w3.org/2000/svg"
   xmlns:svg="http://www.w3.org/2000/svg"><sodipodi:namedview
     id="namedview1"
     pagecolor="#ffffff"
     bordercolor="#999999"
     borderopacity="1"
     inkscape:showpageshadow="2"
     inkscape:pageopacity="0"
     inkscape:pagecheckerboard="0"
     inkscape:deskcolor="#d1d1d1"
     inkscape:document-units="mm"
     showguides="true"
     inkscape:zoom="1.4142136"
     inkscape:cx="471.28667"
     inkscape:cy="700.38926"
     inkscape:window-width="1920"
     inkscape:window-height="1017"
     inkscape:window-x="-8"
     inkscape:window-y="-8"
     inkscape:window-maximized="1"
     inkscape:current-layer="layer1" /><defs
     id="defs1" /><g
     inkscape:label="Слой 1"
     inkscape:groupmode="layer"
     id="layer1"><path
       id="path1"
       style="fill:#000000"
       d="M 99.327787 166.75571 L 20.739819 166.87664 L 20.555851 166.87664 L 20.555851 166.87715 C 19.98074 166.88935 19.655205 167.05949 19.339388 167.32312 C 15.574741 170.46569 14.601968 172.73945 12.413196 175.46061 C 14.601968 178.18177 15.574741 180.45553 19.339388 183.5981 C 19.655205 183.86173 19.98074 184.03186 20.555851 184.04406 L 20.555851 184.04458 L 20.739819 184.04458 L 99.327787 184.1655 L 177.91576 184.04458 L 178.09972 184.04458 L 178.09972 184.04406 C 178.67483 184.03186 179.00037 183.86173 179.31619 183.5981 C 183.08084 180.45553 184.05361 178.18177 186.24238 175.46061 C 184.05361 172.73945 183.08084 170.46569 179.31619 167.32312 C 179.00037 167.05949 178.67483 166.88935 178.09972 166.87715 L 178.09972 166.87664 L 177.91576 166.87664 L 99.327787 166.75571 z M 21.034375 167.54895 L 99.327787 167.54895 L 177.6212 167.54895 C 178.00326 167.54895 178.3695 167.52469 178.6971 167.76237 C 181.56259 169.87008 184.38755 174.0557 185.23055 175.46061 C 184.38755 176.86552 181.56259 181.05114 178.6971 183.15885 C 178.3695 183.39657 178.00326 183.37227 177.6212 183.37227 L 99.327787 183.37227 L 21.034375 183.37227 C 20.652316 183.37227 20.286068 183.39653 19.958472 183.15885 C 17.092977 181.05114 14.268018 176.86552 13.42502 175.46061 C 14.268018 174.0557 17.092977 169.87008 19.958472 167.76237 C 20.286068 167.52469 20.652316 167.54895 21.034375 167.54895 z " /></g></svg>
