<svg width="653" height="67" viewBox="0 0 653 67" fill="none" xmlns="http://www.w3.org/2000/svg">
<path fill-rule="evenodd" clip-rule="evenodd" d="M615.158 0C618.478 0 621 0.259881 623.325 1.02148C625.657 1.78517 627.683 3.01818 630.059 4.7998C631.875 6.16199 633.408 8.17559 634.57 10.0459C635.627 11.7462 636.434 13.4247 636.912 14.5947C638.35 15.803 641.946 18.628 643.97 22.2715C645.888 25.7235 649.794 30.5144 651.719 32.4395L652.656 33.5L651.719 34.5605C649.794 36.4856 645.888 41.2765 643.97 44.7285C641.946 48.372 638.35 51.197 636.912 52.4053C636.434 53.5753 635.627 55.2538 634.57 56.9541C633.408 58.8244 631.875 60.838 630.059 62.2002C627.683 63.9818 625.657 65.2148 623.325 65.9785C621 66.7401 618.478 67 615.158 67H37.498C34.1781 67 31.656 66.7401 29.3311 65.9785C26.9997 65.2148 24.9732 63.9818 22.5977 62.2002C20.7815 60.838 19.2479 58.8244 18.0859 56.9541C17.0296 55.2538 16.2224 53.5753 15.7441 52.4053C14.3067 51.197 10.7107 48.372 8.68652 44.7285C6.76872 41.2765 2.8626 36.4856 0.9375 34.5605L0 33.5L0.9375 32.4395C2.8626 30.5144 6.76872 25.7235 8.68652 22.2715C10.7107 18.628 14.3067 15.803 15.7441 14.5947C16.2224 13.4247 17.0296 11.7462 18.0859 10.0459C19.2479 8.17559 20.7815 6.16199 22.5977 4.7998C24.9732 3.01818 26.9997 1.78517 29.3311 1.02148C31.656 0.259881 34.1781 0 37.498 0H615.158ZM37.498 3C34.318 3 32.1564 3.2524 30.2646 3.87207C28.3794 4.48965 26.656 5.50703 24.3984 7.2002C23.0147 8.23798 21.7145 9.89099 20.6348 11.6289C19.5658 13.3496 18.7826 15.0395 18.3984 16.0381L18.2646 16.3848L17.9854 16.6289C16.5189 17.912 13.1463 20.4224 11.3096 23.7285C9.52556 26.9397 6.2639 31.0759 4.06152 33.5C6.2639 35.9241 9.52556 40.0603 11.3096 43.2715C13.1463 46.5776 16.5189 49.088 17.9854 50.3711L18.2646 50.6152L18.3984 50.9619C18.7826 51.9605 19.5658 53.6504 20.6348 55.3711C21.7145 57.109 23.0147 58.762 24.3984 59.7998C26.656 61.493 28.3794 62.5104 30.2646 63.1279C32.1564 63.7476 34.318 64 37.498 64H615.158C618.338 64 620.5 63.7476 622.392 63.1279C624.277 62.5104 626 61.493 628.258 59.7998C629.642 58.762 630.942 57.109 632.021 55.3711C633.09 53.6504 633.874 51.9605 634.258 50.9619L634.392 50.6152L634.671 50.3711C636.137 49.088 639.51 46.5776 641.347 43.2715C643.131 40.0603 646.392 35.9241 648.595 33.5C646.392 31.0759 643.131 26.9397 641.347 23.7285C639.51 20.4224 636.137 17.912 634.671 16.6289L634.392 16.3848L634.258 16.0381C633.874 15.0395 633.09 13.3496 632.021 11.6289C630.942 9.89099 629.642 8.23798 628.258 7.2002C626 5.50703 624.277 4.48965 622.392 3.87207C620.5 3.2524 618.338 3 615.158 3H37.498Z" fill="#B7AEA5"/>
</svg>
